<?xml version="1.0" standalone="no"?>
<!DOCTYPE svg PUBLIC "-//W3C//DTD SVG 20010904//EN"
 "http://www.w3.org/TR/2001/REC-SVG-20010904/DTD/svg10.dtd">
<svg version="1.0" xmlns="http://www.w3.org/2000/svg"
 width="50.000000pt" height="35.000000pt" viewBox="0 0 300.000000 400.000000"
 preserveAspectRatio="xMidYMid meet">

<g transform="translate(0.000000,400.000000) scale(0.100000,-0.100000)"
fill="#000000" stroke="none">
<path d="M3051 3364 c-37 -31 -75 -93 -97 -157 -14 -42 -18 -46 -36 -36 -29
16 -81 3 -109 -27 -19 -20 -24 -38 -27 -95 -4 -57 -7 -69 -19 -65 -8 3 -16 6
-19 6 -2 0 -11 15 -20 33 -12 23 -17 53 -15 105 1 69 0 75 -28 103 -23 22 -39
29 -69 29 -56 0 -93 -34 -139 -128 -34 -67 -38 -84 -38 -151 0 -42 4 -91 8
-109 l9 -34 -41 28 c-33 21 -48 25 -77 21 -51 -8 -73 -32 -91 -97 -22 -82 -32
-92 -80 -82 -49 11 -73 2 -135 -50 -44 -36 -52 -40 -74 -29 -78 35 -154 -11
-154 -93 0 -24 5 -48 10 -51 22 -14 41 -70 60 -177 22 -129 40 -187 77 -242
14 -22 31 -68 39 -104 7 -35 27 -91 44 -124 16 -34 30 -76 30 -94 0 -68 38
-160 90 -217 36 -40 50 -63 50 -84 0 -43 28 -130 63 -196 34 -65 108 -137 167
-163 22 -10 43 -27 46 -37 12 -38 89 -109 224 -209 74 -55 163 -128 196 -164
57 -59 65 -64 105 -64 39 0 47 5 103 64 34 35 122 109 197 164 136 101 211
172 223 209 3 10 24 27 46 37 104 46 198 179 222 316 9 53 19 73 51 108 51 57
85 133 92 207 4 34 19 86 36 122 17 34 36 92 43 127 8 36 23 78 35 94 34 49
61 130 81 249 19 108 38 164 60 178 5 3 10 27 10 51 0 37 -6 51 -29 75 -33 33
-73 37 -158 18 -44 -10 -56 -8 -133 19 -133 47 -143 53 -175 96 -63 84 -151
69 -190 -34 -41 -106 -60 -55 -30 80 39 176 -2 299 -128 391 -43 31 -92 38
-129 18 -20 -11 -20 -9 -13 46 8 68 -4 104 -44 128 -42 25 -84 21 -120 -9z
m122 -27 c16 -18 17 -32 12 -106 -4 -50 -3 -97 3 -111 10 -25 10 -25 26 22 2
9 16 24 30 33 38 25 78 11 139 -50 88 -86 104 -165 71 -355 -19 -110 -10 -154
28 -148 22 3 29 13 65 93 32 71 106 74 145 6 23 -39 29 -43 163 -93 87 -33
113 -36 194 -21 68 13 105 2 121 -37 13 -32 7 -62 -22 -101 -12 -16 -26 -68
-38 -139 -23 -135 -41 -192 -80 -253 -16 -25 -33 -72 -39 -104 -6 -32 -26 -89
-45 -128 -24 -49 -36 -88 -39 -131 -6 -72 -34 -134 -88 -190 -33 -34 -41 -51
-50 -103 -23 -145 -104 -264 -216 -317 -28 -13 -48 -32 -63 -61 -25 -47 -63
-81 -235 -208 -66 -48 -143 -113 -171 -143 -71 -76 -99 -76 -168 0 -28 31
-124 111 -214 177 -130 97 -168 131 -189 169 -18 33 -38 53 -66 66 -113 54
-193 173 -217 320 -9 57 -16 71 -55 111 -50 52 -85 134 -85 200 0 31 -11 64
-35 112 -20 37 -40 94 -46 126 -6 32 -24 79 -40 105 -36 56 -64 149 -79 257
-7 53 -22 101 -43 143 -30 59 -31 65 -16 90 24 43 53 53 110 36 45 -14 49 -13
71 7 50 45 102 79 122 79 12 0 32 -7 45 -16 23 -16 25 -16 42 7 27 36 49 84
49 110 0 12 10 33 22 46 60 63 179 -17 212 -143 l13 -49 7 42 c6 35 2 53 -25
115 -25 56 -34 90 -37 148 -4 85 8 131 59 215 39 64 74 84 118 66 38 -16 49
-44 43 -117 -4 -64 9 -104 44 -135 55 -47 84 -24 84 65 0 49 4 67 20 84 27 28
76 29 106 1 l22 -20 7 38 c8 48 39 117 71 165 41 59 99 70 137 25z"/>
<path d="M3075 3313 c-49 -53 -92 -179 -95 -276 0 -5 -15 11 -33 35 -56 73
-107 62 -107 -24 0 -27 -7 -64 -14 -83 -13 -31 -19 -35 -50 -35 -25 0 -45 9
-70 30 -45 40 -60 87 -52 161 6 63 -7 89 -44 89 -24 0 -43 -20 -77 -78 -56
-96 -59 -207 -6 -324 40 -91 32 -205 -15 -196 -16 3 -20 11 -41 94 -14 54 -82
124 -121 124 -33 0 -45 -14 -54 -62 -5 -28 -47 -103 -81 -146 -2 -2 -18 6 -36
17 -19 12 -40 21 -46 21 -19 0 -107 -70 -115 -91 -7 -17 -9 -17 -68 3 -58 19
-62 19 -81 3 -25 -24 -24 -38 6 -90 18 -29 32 -80 46 -160 21 -125 46 -199 83
-248 14 -19 27 -54 31 -85 4 -30 23 -86 43 -125 25 -50 36 -88 38 -125 4 -69
43 -154 93 -201 34 -32 39 -44 50 -111 22 -142 105 -261 216 -306 25 -11 45
-25 45 -33 0 -36 54 -90 198 -198 87 -65 182 -144 212 -175 31 -32 62 -58 71
-58 8 0 39 25 69 56 30 31 126 110 212 175 144 110 198 164 198 200 0 8 20 22
45 33 109 44 193 162 216 301 10 62 17 76 56 118 56 61 81 117 87 198 4 47 14
82 39 131 19 36 38 90 42 120 4 31 17 66 31 85 37 49 62 123 83 248 14 80 28
131 46 160 31 54 31 70 2 90 -25 16 -86 10 -151 -15 -23 -8 -32 -8 -46 5 -9 8
-48 26 -86 39 -127 44 -147 53 -157 72 -19 36 -51 64 -73 64 -26 0 -35 -11
-58 -73 -31 -82 -99 -97 -132 -29 -16 34 -16 41 1 129 26 139 24 200 -9 267
-28 58 -102 126 -136 126 -22 0 -39 -20 -49 -57 -5 -18 -15 -29 -29 -31 -38
-6 -55 53 -47 159 7 81 6 88 -13 98 -30 16 -38 14 -67 -16z m29 -65 c-4 -13
-6 -50 -5 -83 5 -126 89 -192 164 -127 9 8 17 21 17 28 0 28 22 23 55 -12 20
-21 33 -44 30 -51 -2 -8 -1 -11 5 -8 21 13 25 -98 6 -200 -23 -121 -14 -195
26 -223 10 -7 16 -17 13 -21 -2 -5 22 -8 54 -7 67 1 87 14 131 85 l28 44 16
-32 c9 -17 14 -37 10 -43 -4 -7 -3 -8 4 -4 15 9 32 -33 32 -76 0 -30 -1 -30
-18 -15 -23 21 -68 22 -115 2 -100 -41 -205 3 -237 100 -13 41 -10 138 10 249
9 53 9 79 1 108 -13 41 -25 47 -52 22 -31 -28 -102 -30 -145 -5 -20 12 -38 21
-39 19 -1 -2 6 -64 16 -138 22 -163 15 -228 -30 -273 -60 -60 -165 -38 -198
41 -12 29 -13 46 -3 99 7 34 15 63 19 63 3 0 7 18 9 40 1 22 0 40 -4 40 -3 0
-20 -10 -36 -22 -63 -44 -141 -35 -225 29 -40 29 -43 16 -11 -48 27 -54 36
-165 17 -212 -30 -75 -82 -117 -144 -117 -12 0 -41 13 -63 30 -32 23 -44 40
-53 75 -14 57 -22 62 -48 29 -11 -14 -24 -23 -29 -20 -6 3 -9 0 -8 -7 1 -15
-63 -92 -70 -84 -8 7 15 57 26 57 6 0 9 4 5 10 -3 5 3 18 15 30 11 11 17 20
14 20 -3 0 3 12 14 28 11 15 25 44 31 65 7 20 16 37 21 37 13 0 31 -27 27 -41
-2 -8 -2 -11 0 -6 14 24 40 -30 45 -90 1 -18 6 -33 11 -33 5 0 6 -8 3 -17 -4
-10 -4 -15 -1 -11 4 3 22 0 40 -8 86 -35 137 63 114 218 -2 14 -7 24 -10 22
-4 -2 -16 27 -29 64 -26 83 -22 160 12 224 l22 43 7 -68 c7 -84 43 -141 109
-175 54 -28 98 -24 141 12 17 14 28 26 25 26 -3 0 1 17 8 38 7 20 11 50 10 66
l-3 29 25 -37 c21 -30 23 -40 13 -52 -10 -12 -9 -13 5 -8 9 4 16 3 15 -2 -1
-5 1 -17 5 -26 10 -22 3 -112 -14 -206 -12 -64 -12 -77 0 -99 21 -36 62 -39
100 -6 27 22 30 31 30 84 0 32 -7 107 -16 166 -23 153 -17 263 19 336 29 58
44 75 31 35z m-1126 -731 c23 -7 41 -15 38 -17 -2 -3 7 -6 21 -7 63 -3 110
-81 77 -126 l-16 -22 5 22 c8 34 -31 67 -106 92 -41 14 -67 28 -67 37 0 8 -5
14 -11 14 -5 0 -7 5 -4 10 8 13 11 12 63 -3z m2112 8 c0 -18 -53 -55 -99 -70
-29 -10 -60 -26 -69 -36 -9 -10 -19 -16 -23 -13 -4 2 -5 -11 -2 -28 4 -33 4
-33 -12 -11 -27 37 -4 95 45 116 92 37 160 55 160 42z m-1859 -132 c53 -38 76
-79 78 -141 1 -52 21 -93 56 -116 21 -14 24 -20 15 -36 -15 -29 -58 -25 -113
10 -54 34 -67 37 -67 15 0 -17 101 -95 149 -114 17 -8 31 -20 31 -29 0 -12
-13 -14 -77 -10 -77 5 -77 5 -120 52 -47 52 -87 132 -96 189 -5 33 -1 47 30
93 23 34 37 68 38 92 1 20 3 38 4 40 2 5 19 -6 72 -45z m1615 2 c0 -21 15 -55
37 -89 31 -46 35 -60 30 -93 -9 -57 -49 -137 -96 -189 -43 -47 -43 -47 -120
-52 -64 -4 -77 -2 -77 10 0 9 14 21 31 29 48 19 149 97 149 114 0 22 -13 19
-67 -15 -55 -35 -98 -39 -113 -11 -8 16 -5 23 19 40 32 23 52 70 53 123 1 54
27 96 86 138 30 22 58 38 61 34 3 -3 6 -20 7 -39z m-1825 15 c10 -6 19 -16 19
-22 0 -9 -3 -9 -12 0 -7 7 -22 12 -35 12 -13 0 -23 5 -23 10 0 13 26 13 51 0z
m2009 0 c0 -5 -10 -10 -23 -10 -13 0 -28 -5 -35 -12 -9 -9 -12 -9 -12 0 0 14
29 31 53 32 9 0 17 -4 17 -10z m-1693 -26 c3 -8 -1 -23 -10 -32 -15 -14 -17
-14 -23 1 -8 21 1 47 16 47 6 0 13 -7 17 -16z m1359 1 c4 -8 3 -23 0 -32 -6
-15 -8 -15 -23 -1 -16 17 -12 48 7 48 6 0 13 -7 16 -15z m-1137 -30 c60 -15
75 -30 59 -58 -9 -17 -18 -19 -75 -14 -63 6 -65 6 -60 -15 4 -14 0 -26 -11
-34 -14 -10 -15 -15 -4 -25 28 -30 -4 -78 -43 -63 -20 8 -60 76 -75 130 -28
96 39 122 209 79z m1084 -7 c13 -16 17 -31 13 -53 -10 -47 -55 -134 -77 -145
-40 -22 -78 27 -46 59 10 10 9 15 -5 25 -11 8 -15 20 -11 34 5 21 3 21 -60 15
-59 -5 -66 -4 -76 15 -20 37 5 50 149 76 46 8 95 -3 113 -26z m-842 -22 c31
-12 70 -32 87 -44 36 -26 50 -28 48 -5 -2 24 48 46 84 38 34 -7 57 -30 40 -40
-6 -3 -8 -10 -5 -15 3 -5 38 8 78 30 79 42 153 67 165 56 4 -4 -2 -14 -13 -22
-19 -14 -19 -16 -2 -28 9 -7 17 -16 17 -19 0 -3 -35 -24 -77 -47 -97 -52 -143
-86 -143 -107 0 -9 9 -31 21 -49 27 -44 22 -64 -21 -80 -70 -25 -191 -7 -198
29 -2 10 6 32 17 51 12 18 21 40 21 48 0 23 -38 52 -132 103 -49 26 -88 51
-88 55 0 5 9 12 21 15 l21 7 -23 24 -22 24 24 0 c13 0 49 -11 80 -24z m-13
-128 c105 -59 118 -77 83 -119 -17 -20 -23 -22 -38 -12 -34 23 -196 103 -208
103 -7 0 -24 -10 -39 -21 -33 -26 -44 -19 -27 17 16 35 4 45 -19 17 -24 -30
-32 -29 -28 4 2 20 14 33 48 51 65 34 109 26 228 -40z m666 33 c25 -16 36 -30
36 -47 0 -30 -7 -30 -30 -1 -23 28 -35 18 -19 -17 17 -36 6 -43 -27 -17 -15
11 -32 21 -39 21 -12 0 -174 -80 -208 -103 -15 -10 -21 -8 -38 12 -33 40 -25
57 51 101 150 88 199 97 274 51z m-788 -157 c-3 -9 -6 -23 -6 -31 0 -13 -3
-13 -15 -3 -23 19 -19 50 6 50 15 0 19 -4 15 -16z m704 -3 c0 -10 -7 -24 -15
-31 -12 -10 -15 -10 -15 3 0 8 -3 22 -6 31 -4 12 0 16 15 16 14 0 21 -6 21
-19z m-595 -23 c31 -14 28 -28 -8 -46 -19 -9 -32 -10 -44 -3 -17 10 -16 10 2
11 19 1 19 1 3 14 -41 30 -6 48 47 24z m515 1 c0 -7 -8 -18 -17 -25 -17 -13
-17 -13 2 -14 18 -1 19 -1 2 -11 -12 -7 -25 -6 -44 3 -35 17 -39 32 -11 46 31
14 68 15 68 1z m-677 -32 c31 -15 57 -29 57 -32 0 -7 -70 -35 -90 -35 -20 0
-50 40 -50 68 0 20 10 35 19 29 3 -2 32 -15 64 -30z m854 17 c9 -23 -23 -84
-44 -83 -28 1 -83 23 -84 33 0 8 92 60 114 65 4 0 10 -6 14 -15z m-1253 -78
c15 -4 45 -20 65 -36 53 -43 125 -71 198 -78 46 -5 69 -12 77 -24 19 -31 -7
-43 -92 -40 -86 2 -83 -9 6 -29 90 -21 73 -32 -44 -27 -125 5 -175 22 -244 84
-64 58 -113 174 -77 187 6 2 28 -4 47 -13 19 -9 48 -20 64 -24z m1696 8 c0
-39 -45 -117 -90 -158 -69 -62 -119 -79 -244 -84 -117 -5 -134 6 -44 27 89 20
92 31 6 29 -85 -3 -111 9 -92 40 8 12 31 19 77 24 73 7 145 35 198 78 20 15
53 33 75 39 21 6 50 18 63 25 32 18 51 10 51 -20z m-971 -19 c60 -15 89 -14
134 4 33 13 65 15 52 3 -15 -13 -89 -32 -125 -32 -36 0 -110 19 -124 32 -14
11 -2 10 63 -7z m-391 -18 c7 -8 6 -18 -4 -32 -13 -17 -16 -18 -24 -5 -23 36
2 69 28 37z m942 -4 c0 -10 -5 -25 -10 -33 -8 -13 -11 -12 -24 5 -10 14 -11
24 -4 32 15 19 38 16 38 -4z m-674 -22 c45 -21 64 -36 73 -59 14 -34 8 -52
-17 -52 -9 -1 -33 -10 -52 -21 -27 -16 -29 -19 -10 -14 92 23 150 13 150 -24
0 -21 -19 -31 -56 -31 -14 0 -57 -7 -95 -16 -56 -13 -78 -24 -110 -54 l-40
-38 -13 27 c-16 30 -46 128 -46 148 0 7 10 13 22 13 l21 0 -21 23 c-23 24 -29
52 -13 62 5 3 12 1 16 -5 3 -5 11 -10 16 -10 5 0 2 11 -7 25 -27 42 -13 55 58
55 49 0 77 -7 124 -29z m560 14 c4 -8 -1 -26 -10 -40 -9 -14 -12 -25 -7 -25 5
0 13 5 16 10 4 6 11 8 16 5 16 -10 10 -38 -13 -62 l-21 -23 21 0 c12 0 22 -6
22 -13 0 -21 -31 -119 -47 -150 l-14 -28 -21 26 c-28 36 -84 62 -164 75 -114
19 -114 19 -114 40 0 38 57 48 150 25 19 -5 17 -2 -10 14 -19 11 -43 20 -52
21 -25 0 -31 18 -17 52 19 46 114 88 197 88 47 0 64 -4 68 -15z m-931 -6 c4
-5 -7 -9 -24 -9 -39 0 -49 17 -11 18 16 0 32 -4 35 -9z m1169 -1 c-3 -4 -19
-8 -35 -8 -17 0 -28 4 -24 9 3 5 19 9 35 9 16 -1 27 -5 24 -10z m-1372 -168
c18 -10 62 -27 97 -35 49 -13 70 -25 94 -52 37 -42 112 -80 177 -89 41 -6 90
-36 90 -56 0 -15 -127 -8 -205 12 -89 23 -95 23 -95 11 0 -12 64 -37 118 -46
55 -9 60 -36 5 -29 -188 25 -312 107 -348 227 -22 75 2 96 67 57z m1587 7 c18
-22 -13 -108 -58 -159 -63 -71 -158 -113 -293 -132 -56 -7 -51 20 5 29 53 9
117 34 117 46 0 12 -6 12 -95 -11 -78 -20 -205 -27 -205 -12 0 20 48 50 89 56
70 11 139 45 176 89 27 31 44 41 82 48 26 5 68 20 93 33 54 28 74 31 89 13z
m-689 -94 c0 37 25 9 28 -30 3 -34 0 -42 -17 -48 -29 -9 -40 0 -62 53 -16 36
-17 47 -7 54 9 5 21 -1 35 -20 19 -22 23 -24 23 -9z m-580 8 c0 -23 -34 -25
-65 -3 -18 13 -17 14 18 10 20 -2 37 0 37 4 0 4 2 8 5 8 3 0 5 -9 5 -19z m360
4 c0 -37 -54 -105 -83 -105 -13 0 -3 103 11 108 6 2 12 -5 13 -15 0 -16 2 -15
16 5 18 25 43 29 43 7z m70 -41 c0 -46 -5 -50 -55 -44 -28 3 -28 4 -15 44 13
39 26 46 33 19 3 -14 6 -11 11 9 12 40 26 24 26 -28z m36 29 l7 -27 9 25 c9
23 10 23 24 5 8 -11 14 -32 14 -48 0 -26 -3 -28 -40 -28 l-40 0 0 50 c0 54 15
67 26 23z m462 15 c34 4 35 3 17 -10 -33 -23 -65 -21 -64 5 0 12 3 17 5 12 2
-6 21 -9 42 -7z m-675 -110 c2 -54 0 -98 -4 -98 -15 0 -56 41 -73 73 -13 22
-17 43 -12 60 8 34 21 34 40 0 l15 -28 1 48 c0 38 3 48 15 45 12 -2 16 -23 18
-100z m422 49 c0 -49 9 -62 18 -27 7 26 27 26 27 0 0 -47 -67 -146 -86 -127
-4 3 -8 52 -10 107 l-4 101 28 -3 c25 -3 27 -6 27 -51z m-828 -208 c17 -30 30
-55 28 -57 -2 -2 -13 2 -25 8 -18 10 -21 9 -18 -2 8 -23 66 -55 113 -62 68
-11 92 -60 56 -115 -12 -18 -61 -17 -99 3 -71 37 -140 144 -157 243 -5 34 -3
43 12 52 26 14 52 -6 90 -70z m1288 18 c-11 -62 -57 -157 -96 -196 -18 -19
-53 -43 -77 -53 -40 -18 -45 -18 -67 -4 -60 39 -36 110 40 122 47 7 105 39
113 62 3 11 0 12 -16 3 -33 -18 -34 -13 -6 37 38 68 70 95 95 81 18 -9 19 -17
14 -52z m-980 -56 c-14 -41 -25 -94 -25 -117 0 -63 33 -79 160 -75 137 4 193
4 300 0 77 -3 101 -1 128 14 28 16 32 22 32 61 0 23 -11 76 -25 116 -29 86
-34 133 -8 85 9 -16 26 -42 39 -57 23 -28 56 -108 68 -163 6 -26 1 -37 -28
-72 -31 -36 -42 -41 -91 -48 -31 -3 -84 -14 -118 -24 -47 -12 -73 -14 -104 -7
-26 5 -60 5 -85 0 -32 -7 -58 -5 -105 7 -34 10 -87 21 -118 24 -49 7 -60 12
-91 48 -29 35 -34 46 -28 72 13 59 45 134 74 170 16 20 33 46 37 58 7 21 7 21
10 2 2 -11 -8 -53 -22 -94z m-235 47 c0 -4 -4 -8 -9 -8 -6 0 -12 4 -15 8 -3 5
1 9 9 9 8 0 15 -4 15 -9z m1064 0 c-3 -4 -9 -8 -15 -8 -5 0 -9 4 -9 8 0 5 7 9
15 9 8 0 12 -4 9 -9z m-948 -25 c-4 -21 -43 -19 -66 3 -12 12 -9 14 27 14 34
0 41 -3 39 -17z m874 3 c-23 -22 -64 -24 -68 -3 -3 14 4 17 39 17 38 0 41 -2
29 -14z m-506 -17 l38 -20 22 20 c28 26 87 28 109 3 36 -40 -21 -62 -148 -58
-113 3 -133 9 -131 37 2 42 51 50 110 18z m-155 -64 c1 -22 -2 -57 -5 -77 -6
-32 -11 -38 -30 -38 -19 0 -24 5 -24 28 -1 24 -2 25 -14 10 -20 -27 -26 -22
-26 18 0 40 29 95 63 119 20 14 22 14 29 -2 3 -10 7 -36 7 -58z m440 46 c21
-21 41 -80 41 -118 0 -29 -26 -30 -35 -3 -10 30 -25 24 -25 -10 0 -39 -26 -40
-34 -2 -5 27 -9 89 -7 130 1 28 33 30 60 3z m-363 -76 c6 -23 6 -23 25 -4 13
13 30 19 47 17 24 -3 27 -8 30 -45 3 -45 -9 -56 -27 -25 -10 16 -10 16 -11 0
0 -25 -25 -22 -39 5 -11 21 -11 21 -6 -5 6 -32 -14 -49 -22 -19 -7 27 -23 27
-23 0 0 -14 -5 -19 -17 -17 -15 3 -17 12 -14 58 2 30 5 58 7 62 9 14 45 -6 50
-27z m285 -2 c15 -39 8 -87 -13 -91 -11 -2 -18 3 -18 12 0 9 -4 16 -10 16 -5
0 -10 -4 -10 -10 0 -5 -7 -10 -16 -10 -9 0 -14 6 -11 13 32 80 41 97 53 97 8
0 19 -12 25 -27z m-97 -2 c12 -13 15 -27 10 -45 -8 -32 -34 -35 -34 -3 -1 20
-2 20 -11 5 -21 -37 -45 -6 -29 37 11 30 40 33 64 6z m-336 -236 c72 -29 82
-30 82 -9 0 11 6 14 23 8 42 -13 93 -42 125 -72 l32 -30 33 30 c32 30 84 60
125 72 16 6 22 3 22 -8 0 -21 10 -20 82 9 72 29 79 30 71 9 -5 -14 -2 -16 20
-10 15 3 27 2 27 -3 0 -4 -66 -57 -146 -117 -80 -59 -166 -127 -190 -151 l-45
-43 -47 45 c-26 25 -111 94 -189 152 -79 58 -143 110 -143 114 0 5 12 6 27 3
22 -6 25 -4 20 10 -8 21 -1 20 71 -9z m272 -10 c0 -8 -4 -15 -10 -15 -5 0 -10
7 -10 15 0 8 5 15 10 15 6 0 10 -7 10 -15z"/>
<path d="M2666 1783 c-11 -11 -6 -23 9 -23 8 0 15 4 15 9 0 13 -16 22 -24 14z"/>
<path d="M2715 1760 c4 -6 11 -8 16 -5 14 9 11 15 -7 15 -8 0 -12 -5 -9 -10z"/>
<path d="M3316 1783 c-11 -11 -6 -23 9 -23 8 0 15 4 15 9 0 13 -16 22 -24 14z"/>
<path d="M3265 1760 c4 -6 11 -8 16 -5 14 9 11 15 -7 15 -8 0 -12 -5 -9 -10z"/>
<path d="M2910 913 c0 -5 21 -23 45 -41 l44 -34 45 31 c60 42 68 55 25 45 -43
-11 -96 -11 -131 -1 -16 4 -28 4 -28 0z"/>
</g>
</svg>
